<svg xmlns="http://www.w3.org/2000/svg" xmlns:xlink="http://www.w3.org/1999/xlink" width="96" zoomAndPan="magnify" viewBox="0 0 72 72" height="96" preserveAspectRatio="xMidYMid meet" version="1.0"><defs><filter x="0%" y="0%" width="100%" height="100%" id="33a23f2a84"><feColorMatrix values="0 0 0 0 1 0 0 0 0 1 0 0 0 0 1 0 0 0 1 0" color-interpolation-filters="sRGB"/></filter><clipPath id="fd73f5eb2d"><path d="M 36 0 C 16.117188 0 0 16.117188 0 36 C 0 55.882812 16.117188 72 36 72 C 55.882812 72 72 55.882812 72 36 C 72 16.117188 55.882812 0 36 0 " clip-rule="nonzero"/></clipPath><mask id="3dfc4485c9"><g filter="url(#33a23f2a84)"><rect x="-7.2" width="86.4" fill="#000000" y="-7.2" height="86.4" fill-opacity="0.149"/></g></mask><clipPath id="ada80127fc"><path d="M 25 0.0664062 L 65.640625 0.0664062 L 65.640625 49 L 25 49 Z M 25 0.0664062 " clip-rule="nonzero"/></clipPath><clipPath id="0e18b00ada"><path d="M 0.128906 0.632812 L 39.824219 0.632812 L 39.824219 49.5625 L 0.128906 49.5625 Z M 0.128906 0.632812 " clip-rule="nonzero"/></clipPath><clipPath id="bf44c2bcc5"><rect x="0" width="66" y="0" height="50"/></clipPath><clipPath id="4cea6ed87d"><path d="M 16.445312 45.535156 L 36.996094 45.535156 L 36.996094 63.230469 L 16.445312 63.230469 Z M 16.445312 45.535156 " clip-rule="nonzero"/></clipPath><clipPath id="138c97d09a"><path d="M 11.433594 26.492188 L 27 26.492188 L 27 48 L 11.433594 48 Z M 11.433594 26.492188 " clip-rule="nonzero"/></clipPath><clipPath id="f680589332"><path d="M 45.914062 26.503906 L 60.925781 26.503906 L 60.925781 47.886719 L 45.914062 47.886719 Z M 45.914062 26.503906 " clip-rule="nonzero"/></clipPath><clipPath id="47f9d79d94"><path d="M 24.691406 9 L 47 9 L 47 30.160156 L 24.691406 30.160156 Z M 24.691406 9 " clip-rule="nonzero"/></clipPath><clipPath id="4ee994fc6e"><path d="M 1.722656 1.722656 L 69.972656 1.722656 L 69.972656 69.972656 L 1.722656 69.972656 Z M 1.722656 1.722656 " clip-rule="nonzero"/></clipPath></defs><g clip-path="url(#fd73f5eb2d)"><rect x="-7.2" width="86.4" fill="#1893f8" y="-7.2" height="86.4" fill-opacity="1"/></g><g mask="url(#3dfc4485c9)"><g transform="matrix(1, 0, 0, 1, 3, 11)"><g clip-path="url(#bf44c2bcc5)"><g clip-path="url(#ada80127fc)"><path fill="#ffffff" d="M 63.78125 27.535156 L 58.289062 27.515625 C 57.140625 11.253906 46.871094 0.0664062 34.359375 0.0664062 C 31.359375 0.0664062 28.492188 0.800781 25.84375 2.140625 C 33.421875 7.078125 38.757812 15.632812 39.285156 27.445312 L 33.820312 27.425781 C 31.992188 27.417969 31.574219 28.792969 32.890625 30.484375 L 46.308594 47.703125 C 47.625 49.394531 49.789062 49.40625 51.117188 47.726562 L 64.691406 30.59375 C 66.019531 28.917969 65.609375 27.539062 63.78125 27.535156 " fill-opacity="1" fill-rule="nonzero"/></g><g clip-path="url(#0e18b00ada)"><path fill="#ffffff" d="M 1.820312 22.097656 L 7.308594 22.117188 C 8.457031 38.375 18.730469 49.5625 31.238281 49.5625 C 34.238281 49.5625 37.109375 48.832031 39.753906 47.492188 C 32.175781 42.550781 26.84375 34 26.316406 22.1875 L 31.78125 22.207031 C 33.609375 22.210938 34.027344 20.835938 32.710938 19.144531 L 19.292969 1.929688 C 17.976562 0.234375 15.808594 0.226562 14.484375 1.902344 L 0.910156 19.035156 C -0.417969 20.710938 -0.0078125 22.085938 1.820312 22.097656 " fill-opacity="1" fill-rule="nonzero"/></g></g></g></g><path fill="#ffffff" d="M 28.539062 31.609375 C 26.558594 31.609375 25.949219 31.660156 25.640625 31.707031 C 25.117188 31.785156 24.667969 32.105469 24.425781 32.566406 L 18.121094 44.757812 C 17.820312 45.332031 17.90625 46.03125 18.332031 46.523438 C 18.742188 47 18.855469 47.117188 18.972656 47.242188 C 19.035156 47.304688 19.109375 47.378906 19.480469 47.8125 C 19.503906 47.839844 19.527344 47.863281 19.554688 47.890625 C 19.582031 47.917969 19.609375 47.945312 19.632812 47.972656 C 19.675781 47.898438 19.722656 47.828125 19.773438 47.757812 C 19.851562 47.660156 19.945312 47.566406 20.054688 47.488281 C 20.0625 47.46875 20.070312 47.449219 20.078125 47.429688 C 20.15625 47.300781 20.238281 47.175781 20.320312 47.046875 C 20.425781 46.917969 20.542969 46.808594 20.675781 46.71875 C 19.933594 45.863281 20.382812 46.417969 19.574219 45.484375 L 25.882812 33.292969 C 26.289062 33.234375 27.332031 33.214844 28.539062 33.214844 C 28.878906 33.214844 29.230469 33.214844 29.582031 33.21875 C 29.675781 33.117188 29.773438 33.027344 29.882812 32.953125 C 30.007812 32.382812 30.4375 31.839844 30.984375 31.628906 C 30.183594 31.617188 29.324219 31.609375 28.539062 31.609375 " fill-opacity="1" fill-rule="nonzero"/><path fill="#ffffff" d="M 54.734375 50.398438 C 54.601562 49.230469 53.886719 48.535156 53.363281 48.113281 C 52.980469 47.804688 52.605469 47.480469 52.210938 47.136719 C 52.027344 46.976562 51.847656 46.820312 51.667969 46.664062 C 51.371094 46.414062 51.074219 46.160156 50.78125 45.910156 C 50.25 45.457031 49.71875 45.003906 49.191406 44.546875 C 48.847656 44.253906 48.511719 43.960938 48.171875 43.667969 C 47.804688 43.347656 47.425781 43.019531 47.050781 42.699219 C 46.792969 42.476562 46.527344 42.253906 46.273438 42.042969 C 46.054688 41.859375 45.828125 41.667969 45.609375 41.480469 C 44.96875 40.9375 44.320312 40.378906 43.695312 39.835938 L 43.316406 39.511719 C 42.671875 38.960938 42.03125 38.40625 41.390625 37.851562 C 41.257812 37.738281 40.40625 36.960938 39.300781 35.941406 C 39.246094 36.003906 39.183594 36.058594 39.125 36.105469 C 38.496094 36.601562 37.734375 36.507812 37.121094 36.132812 C 38.609375 37.503906 40.113281 38.886719 40.316406 39.058594 C 40.957031 39.613281 41.597656 40.167969 42.242188 40.71875 C 43.007812 41.378906 43.773438 42.035156 44.539062 42.691406 C 45.019531 43.101562 45.503906 43.5 45.980469 43.90625 C 46.695312 44.519531 47.402344 45.140625 48.117188 45.753906 C 48.941406 46.464844 49.769531 47.167969 50.59375 47.875 C 51.171875 48.371094 51.738281 48.878906 52.328125 49.355469 C 52.738281 49.679688 53.050781 50.039062 53.113281 50.574219 C 53.15625 50.9375 53.160156 51.292969 52.953125 51.605469 C 52.742188 51.921875 52.476562 52.191406 52.15625 52.417969 C 51.890625 52.605469 51.496094 52.703125 51.101562 52.703125 C 50.6875 52.703125 50.269531 52.597656 49.984375 52.371094 C 49.414062 51.921875 48.800781 51.523438 48.207031 51.105469 C 47.335938 50.496094 46.464844 49.890625 45.59375 49.28125 C 44.582031 48.570312 43.570312 47.855469 42.554688 47.140625 C 41.863281 46.652344 41.164062 46.171875 40.472656 45.675781 C 40.203125 45.480469 39.921875 45.34375 39.582031 45.300781 C 39.539062 45.292969 39.5 45.292969 39.457031 45.292969 C 38.96875 45.292969 38.589844 45.667969 38.640625 46.164062 C 38.675781 46.542969 38.871094 46.835938 39.175781 47.050781 C 39.9375 47.597656 40.703125 48.132812 41.472656 48.671875 C 42.121094 49.125 42.773438 49.574219 43.417969 50.03125 C 44.394531 50.722656 45.363281 51.417969 46.339844 52.105469 C 47.078125 52.628906 47.820312 53.148438 48.5625 53.660156 C 49.285156 54.15625 49.347656 54.898438 49.039062 55.542969 C 48.757812 56.125 48.265625 56.398438 47.738281 56.398438 C 47.441406 56.398438 47.132812 56.3125 46.847656 56.144531 C 45.992188 55.644531 45.210938 55.019531 44.394531 54.449219 C 43.347656 53.71875 42.292969 52.988281 41.246094 52.253906 C 40.261719 51.566406 39.277344 50.882812 38.304688 50.183594 C 38.074219 50.019531 37.84375 49.929688 37.570312 49.929688 C 37.535156 49.929688 37.496094 49.929688 37.457031 49.933594 C 37.035156 49.972656 36.800781 50.132812 36.683594 50.507812 C 36.566406 50.886719 36.683594 51.265625 36.996094 51.488281 C 38.539062 52.59375 40.085938 53.691406 41.628906 54.792969 C 42.585938 55.476562 43.546875 56.152344 44.496094 56.84375 C 44.808594 57.066406 44.953125 57.402344 44.980469 57.777344 C 45.007812 58.203125 44.847656 58.574219 44.582031 58.894531 C 44.265625 59.285156 43.859375 59.488281 43.433594 59.488281 C 43.167969 59.488281 42.894531 59.410156 42.625 59.246094 C 42.207031 58.988281 41.8125 58.695312 41.410156 58.417969 C 40.980469 58.121094 40.558594 57.8125 40.128906 57.519531 C 39.503906 57.089844 38.875 56.675781 38.253906 56.246094 C 37.40625 55.660156 36.5625 55.066406 35.710938 54.480469 C 35.53125 54.355469 35.363281 54.296875 35.199219 54.296875 C 34.980469 54.296875 34.78125 54.402344 34.585938 54.613281 C 34.253906 54.980469 34.257812 55.511719 34.609375 55.78125 C 35.042969 56.117188 35.480469 56.441406 35.921875 56.765625 C 37 57.558594 38.078125 58.351562 39.15625 59.144531 C 39.367188 59.300781 39.398438 59.453125 39.289062 59.691406 C 38.988281 60.351562 38.398438 60.671875 37.757812 60.671875 C 37.574219 60.671875 37.386719 60.644531 37.199219 60.59375 C 36.816406 60.484375 36.472656 60.234375 36.105469 60.054688 C 36.089844 60.042969 35.980469 59.964844 35.8125 59.832031 C 35.816406 59.847656 35.820312 59.863281 35.820312 59.878906 C 35.894531 60.34375 35.707031 60.804688 35.433594 61.171875 C 35.371094 61.253906 35.296875 61.328125 35.214844 61.398438 C 35.273438 61.4375 35.3125 61.457031 35.367188 61.484375 C 35.445312 61.523438 35.535156 61.574219 35.636719 61.628906 C 35.929688 61.796875 36.296875 62.007812 36.753906 62.136719 C 37.085938 62.226562 37.421875 62.273438 37.757812 62.273438 C 39.082031 62.273438 40.238281 61.535156 40.78125 60.34375 C 40.828125 60.238281 40.867188 60.132812 40.898438 60.027344 C 41.171875 60.222656 41.453125 60.417969 41.761719 60.605469 C 42.28125 60.925781 42.859375 61.09375 43.433594 61.09375 C 44.363281 61.09375 45.222656 60.671875 45.851562 59.90625 C 46.367188 59.277344 46.628906 58.550781 46.613281 57.804688 C 46.980469 57.933594 47.359375 58.003906 47.738281 58.003906 C 48.941406 58.003906 49.976562 57.339844 50.511719 56.230469 C 50.824219 55.585938 50.910156 54.917969 50.796875 54.296875 C 50.898438 54.304688 51 54.308594 51.101562 54.308594 C 51.855469 54.308594 52.566406 54.101562 53.105469 53.722656 C 53.585938 53.382812 53.996094 52.964844 54.316406 52.484375 C 54.8125 51.738281 54.800781 50.976562 54.734375 50.398438 " fill-opacity="1" fill-rule="nonzero"/><path fill="#ffffff" d="M 37.707031 29.351562 C 36.851562 29.351562 36.003906 29.46875 35.160156 29.636719 C 34.015625 29.871094 32.941406 30.054688 31.9375 30.640625 C 31.832031 30.703125 29.359375 31.796875 27.796875 33.515625 C 27.445312 34.128906 27.097656 34.742188 26.753906 35.359375 C 26.699219 35.460938 26.660156 35.578125 26.648438 35.695312 C 26.574219 36.335938 26.519531 36.980469 26.449219 37.621094 C 26.382812 38.183594 26.363281 38.761719 26.214844 39.300781 C 26.050781 39.910156 25.773438 40.492188 25.523438 41.074219 C 25.355469 41.457031 25.355469 41.828125 25.566406 42.183594 C 25.957031 42.839844 26.5625 43.191406 27.320312 43.269531 C 27.527344 43.289062 27.734375 43.300781 27.945312 43.300781 C 28.496094 43.300781 29.042969 43.222656 29.570312 43.054688 C 30.265625 42.835938 30.867188 42.429688 31.394531 41.933594 C 31.9375 41.429688 32.382812 40.855469 32.71875 40.199219 C 32.980469 39.691406 33.164062 39.164062 33.261719 38.601562 C 33.316406 38.285156 33.328125 37.941406 33.5625 37.675781 C 33.660156 37.566406 33.738281 37.449219 33.835938 37.339844 C 34.257812 36.867188 34.785156 36.527344 35.40625 36.433594 C 35.617188 36.402344 35.828125 36.386719 36.039062 36.386719 C 36.519531 36.386719 37 36.46875 37.460938 36.640625 C 37.703125 36.730469 37.9375 36.828125 38.125 37.023438 C 38.4375 37.359375 38.757812 37.6875 39.09375 37.996094 C 39.488281 38.363281 39.90625 38.707031 40.316406 39.058594 C 40.957031 39.613281 41.597656 40.167969 42.242188 40.71875 C 43.007812 41.378906 43.773438 42.035156 44.539062 42.691406 C 45.019531 43.101562 45.503906 43.5 45.980469 43.90625 C 46.695312 44.519531 47.402344 45.140625 48.117188 45.753906 C 48.941406 46.464844 49.769531 47.167969 50.59375 47.875 C 51.171875 48.371094 51.738281 48.878906 52.328125 49.355469 C 52.34375 49.367188 52.359375 49.371094 52.378906 49.371094 C 52.585938 49.371094 53.058594 48.714844 53.609375 47.941406 C 54.0625 47.3125 54.539062 46.441406 54.855469 45.734375 C 54.894531 45.640625 54.898438 45.496094 54.855469 45.40625 C 54.511719 44.664062 54.15625 43.929688 53.796875 43.191406 C 53.234375 42.03125 52.664062 40.875 52.101562 39.714844 C 51.515625 38.511719 50.933594 37.304688 50.351562 36.101562 C 49.988281 35.351562 49.625 34.601562 49.257812 33.851562 C 48.835938 32.984375 48.410156 32.117188 47.980469 31.253906 C 47.921875 31.132812 47.839844 31.082031 47.6875 31.070312 C 46.855469 31.015625 46.019531 30.972656 45.195312 30.859375 C 44.628906 30.78125 44.074219 30.605469 43.515625 30.460938 C 42.734375 30.253906 41.960938 30.023438 41.175781 29.820312 C 40.140625 29.550781 39.082031 29.394531 38.007812 29.359375 C 37.910156 29.355469 37.808594 29.351562 37.707031 29.351562 Z M 37.707031 30.851562 C 37.792969 30.851562 37.875 30.851562 37.960938 30.855469 C 38.898438 30.882812 39.847656 31.023438 40.789062 31.265625 C 41.195312 31.371094 41.609375 31.488281 42.015625 31.601562 C 42.375 31.703125 42.75 31.808594 43.121094 31.90625 C 43.234375 31.9375 43.347656 31.96875 43.464844 32 C 43.941406 32.128906 44.4375 32.265625 44.984375 32.339844 C 45.636719 32.429688 46.285156 32.476562 46.914062 32.519531 L 46.972656 32.640625 C 47.277344 33.261719 47.582031 33.878906 47.886719 34.5 C 48.171875 35.078125 48.449219 35.660156 48.730469 36.238281 L 48.976562 36.742188 C 49.179688 37.167969 49.386719 37.589844 49.589844 38.011719 C 49.96875 38.796875 50.347656 39.578125 50.730469 40.359375 C 51.011719 40.941406 51.296875 41.523438 51.582031 42.105469 C 51.863281 42.683594 52.144531 43.261719 52.425781 43.839844 C 52.699219 44.402344 52.980469 44.980469 53.257812 45.566406 C 52.988281 46.109375 52.660156 46.671875 52.363281 47.082031 C 52.320312 47.144531 52.273438 47.214844 52.21875 47.285156 C 52.191406 47.261719 52.164062 47.238281 52.136719 47.214844 C 51.957031 47.058594 51.777344 46.902344 51.59375 46.746094 C 51.300781 46.492188 51.003906 46.242188 50.710938 45.988281 C 50.179688 45.535156 49.648438 45.082031 49.117188 44.628906 C 48.777344 44.335938 48.4375 44.039062 48.097656 43.746094 C 47.734375 43.429688 47.355469 43.101562 46.980469 42.777344 C 46.722656 42.554688 46.457031 42.335938 46.203125 42.125 C 45.984375 41.9375 45.757812 41.75 45.539062 41.5625 C 44.898438 41.015625 44.25 40.457031 43.621094 39.917969 L 43.242188 39.59375 C 42.601562 39.039062 41.960938 38.488281 41.320312 37.933594 C 41.199219 37.832031 41.082031 37.730469 40.960938 37.628906 C 40.671875 37.378906 40.398438 37.144531 40.132812 36.90625 C 39.804688 36.597656 39.484375 36.265625 39.242188 36.007812 C 38.792969 35.53125 38.253906 35.335938 37.996094 35.238281 C 37.367188 35.007812 36.707031 34.890625 36.039062 34.890625 C 35.75 34.890625 35.460938 34.910156 35.179688 34.953125 C 34.238281 35.09375 33.378906 35.578125 32.6875 36.355469 C 32.605469 36.449219 32.539062 36.535156 32.488281 36.601562 C 32.460938 36.636719 32.429688 36.675781 32.414062 36.695312 C 31.921875 37.25 31.832031 37.863281 31.777344 38.230469 C 31.773438 38.273438 31.765625 38.316406 31.757812 38.355469 C 31.691406 38.75 31.5625 39.132812 31.359375 39.523438 C 31.113281 40.007812 30.773438 40.453125 30.347656 40.847656 C 29.921875 41.246094 29.515625 41.5 29.105469 41.632812 C 28.742188 41.746094 28.351562 41.804688 27.945312 41.804688 C 27.789062 41.804688 27.632812 41.796875 27.476562 41.78125 C 27.21875 41.753906 27.074219 41.671875 26.96875 41.554688 C 26.996094 41.496094 27.019531 41.441406 27.042969 41.386719 C 27.277344 40.855469 27.515625 40.304688 27.683594 39.691406 C 27.828125 39.160156 27.878906 38.644531 27.921875 38.1875 C 27.933594 38.046875 27.945312 37.917969 27.960938 37.789062 C 28 37.445312 28.035156 37.097656 28.066406 36.761719 C 28.09375 36.503906 28.121094 36.234375 28.148438 35.972656 C 28.433594 35.460938 28.730469 34.933594 29.035156 34.402344 C 29.828125 33.574219 31.058594 32.734375 32.519531 32.03125 C 32.601562 31.988281 32.652344 31.964844 32.710938 31.929688 C 33.425781 31.515625 34.253906 31.347656 35.214844 31.15625 L 35.46875 31.105469 C 36.324219 30.929688 37.035156 30.851562 37.707031 30.851562 " fill-opacity="1" fill-rule="nonzero"/><g clip-path="url(#4cea6ed87d)"><path fill="#ffffff" d="M 33.484375 57.265625 Z M 32.839844 57.90625 Z M 30.714844 58.804688 C 30.742188 58.804688 30.773438 58.808594 30.804688 58.808594 C 31.0625 58.839844 31.285156 58.996094 31.398438 59.226562 C 31.515625 59.460938 31.5 59.664062 31.496094 59.742188 C 31.492188 59.84375 31.484375 59.941406 31.472656 60.035156 C 31.460938 60.183594 31.449219 60.332031 31.464844 60.417969 C 31.523438 60.722656 31.703125 60.996094 32.015625 61.253906 C 32.449219 61.613281 32.832031 61.757812 33.265625 61.730469 C 33.394531 61.71875 33.5 61.671875 33.617188 61.570312 C 34.050781 61.199219 35.171875 59.875 35.382812 59.484375 C 35.441406 59.382812 35.496094 59.226562 35.417969 58.957031 C 35.253906 58.378906 34.875 57.980469 34.265625 57.742188 C 33.730469 57.53125 33.46875 57.632812 33.289062 57.761719 C 33.089844 57.898438 32.890625 57.90625 32.824219 57.910156 C 32.601562 57.929688 32.378906 57.851562 32.21875 57.695312 C 32.054688 57.535156 31.972656 57.3125 31.996094 57.085938 L 32 57.070312 C 32 56.996094 32.007812 56.867188 32.066406 56.714844 C 32.183594 56.421875 32.261719 56 31.820312 55.339844 C 31.46875 54.816406 31 54.5 30.375 54.363281 C 29.945312 54.269531 29.613281 54.320312 29.292969 54.527344 C 29.246094 54.558594 29.195312 54.589844 29.128906 54.628906 L 29.035156 54.683594 C 28.757812 54.847656 28.402344 54.820312 28.15625 54.617188 C 27.90625 54.414062 27.816406 54.078125 27.929688 53.777344 C 28.269531 52.882812 28.074219 52.195312 27.292969 51.546875 C 26.507812 50.886719 25.785156 50.800781 24.953125 51.273438 C 24.648438 51.445312 24.261719 51.390625 24.019531 51.140625 C 23.777344 50.890625 23.742188 50.507812 23.933594 50.21875 C 24.5625 49.257812 24.492188 48.457031 23.714844 47.703125 C 22.941406 46.953125 22.144531 46.84375 21.214844 47.359375 C 20.289062 48.386719 20.015625 48.710938 19.894531 48.847656 L 19.84375 48.914062 C 19.683594 49.097656 19.523438 49.289062 19.367188 49.476562 C 19.101562 49.796875 18.824219 50.125 18.535156 50.445312 C 18.175781 50.839844 18.003906 51.1875 17.980469 51.566406 C 17.941406 52.167969 18.136719 52.671875 18.574219 53.109375 C 18.933594 53.464844 19.359375 53.667969 19.882812 53.738281 C 20.265625 53.785156 20.609375 53.714844 20.941406 53.523438 C 21.015625 53.480469 21.097656 53.421875 21.199219 53.347656 C 21.261719 53.304688 21.324219 53.257812 21.390625 53.210938 C 21.652344 53.03125 22 53.03125 22.261719 53.207031 C 22.523438 53.386719 22.644531 53.703125 22.566406 54.007812 C 22.5625 54.03125 22.558594 54.046875 22.554688 54.0625 C 22.542969 54.125 22.519531 54.222656 22.46875 54.328125 C 22.308594 54.648438 22.304688 54.992188 22.457031 55.371094 C 22.761719 56.125 23.285156 56.59375 24.0625 56.8125 C 24.644531 56.972656 25.074219 56.90625 25.453125 56.597656 C 25.507812 56.554688 25.554688 56.523438 25.605469 56.492188 C 25.628906 56.476562 25.652344 56.460938 25.683594 56.4375 C 25.9375 56.265625 26.273438 56.261719 26.53125 56.425781 C 26.789062 56.589844 26.921875 56.894531 26.867188 57.191406 C 26.859375 57.226562 26.855469 57.253906 26.851562 57.28125 C 26.839844 57.367188 26.820312 57.476562 26.769531 57.601562 C 26.679688 57.816406 26.699219 58.054688 26.832031 58.457031 C 27.054688 59.136719 27.898438 59.871094 28.792969 59.886719 C 29.277344 59.890625 29.589844 59.753906 29.839844 59.414062 C 29.914062 59.320312 29.988281 59.234375 30.054688 59.160156 C 30.078125 59.128906 30.105469 59.101562 30.128906 59.074219 C 30.273438 58.902344 30.488281 58.804688 30.714844 58.804688 Z M 33.148438 63.230469 C 32.398438 63.230469 31.707031 62.957031 31.035156 62.398438 C 30.582031 62.023438 30.265625 61.59375 30.085938 61.121094 C 29.703125 61.300781 29.261719 61.390625 28.769531 61.382812 C 27.320312 61.363281 25.832031 60.28125 25.382812 58.921875 C 25.324219 58.742188 25.269531 58.542969 25.230469 58.332031 C 24.746094 58.433594 24.21875 58.410156 23.652344 58.253906 C 22.421875 57.910156 21.519531 57.105469 21.042969 55.921875 C 20.941406 55.667969 20.875 55.414062 20.84375 55.164062 C 20.472656 55.253906 20.085938 55.273438 19.6875 55.222656 C 18.828125 55.109375 18.085938 54.753906 17.492188 54.160156 C 16.753906 53.425781 16.398438 52.496094 16.460938 51.472656 C 16.503906 50.753906 16.8125 50.09375 17.402344 49.445312 C 17.667969 49.152344 17.921875 48.847656 18.191406 48.527344 C 18.351562 48.332031 18.515625 48.136719 18.679688 47.945312 L 18.726562 47.890625 C 18.863281 47.730469 19.148438 47.394531 20.152344 46.277344 C 20.207031 46.21875 20.265625 46.171875 20.332031 46.132812 C 21.902344 45.199219 23.484375 45.378906 24.78125 46.636719 C 25.636719 47.464844 25.992188 48.453125 25.835938 49.476562 C 26.679688 49.445312 27.503906 49.753906 28.28125 50.40625 C 29.121094 51.105469 29.566406 51.933594 29.609375 52.847656 C 29.957031 52.800781 30.324219 52.820312 30.707031 52.902344 C 31.71875 53.121094 32.519531 53.664062 33.089844 54.515625 C 33.449219 55.050781 33.648438 55.589844 33.675781 56.121094 C 34.039062 56.117188 34.425781 56.191406 34.832031 56.351562 C 35.878906 56.765625 36.589844 57.523438 36.882812 58.550781 C 37.050781 59.140625 37 59.691406 36.726562 60.195312 C 36.378906 60.828125 35.105469 62.277344 34.621094 62.695312 C 34.257812 63.011719 33.839844 63.1875 33.378906 63.222656 C 33.300781 63.226562 33.226562 63.230469 33.148438 63.230469 " fill-opacity="1" fill-rule="nonzero"/></g><path fill="#ffffff" d="M 21.859375 54.574219 C 21.6875 54.574219 21.511719 54.515625 21.371094 54.398438 C 21.046875 54.132812 21.003906 53.664062 21.273438 53.34375 L 23.992188 50.136719 C 24.261719 49.820312 24.742188 49.777344 25.0625 50.042969 C 25.386719 50.304688 25.429688 50.777344 25.160156 51.09375 L 22.441406 54.304688 C 22.292969 54.480469 22.074219 54.574219 21.859375 54.574219 " fill-opacity="1" fill-rule="nonzero"/><path fill="#ffffff" d="M 26.097656 57.78125 C 25.929688 57.78125 25.765625 57.726562 25.625 57.617188 C 25.296875 57.359375 25.242188 56.886719 25.503906 56.566406 L 28.113281 53.355469 C 28.378906 53.035156 28.855469 52.980469 29.183594 53.238281 C 29.511719 53.496094 29.566406 53.96875 29.304688 54.292969 L 26.691406 57.5 C 26.542969 57.683594 26.320312 57.78125 26.097656 57.78125 " fill-opacity="1" fill-rule="nonzero"/><path fill="#ffffff" d="M 30.558594 60.453125 C 30.390625 60.453125 30.226562 60.402344 30.085938 60.292969 C 29.753906 60.035156 29.699219 59.566406 29.960938 59.242188 L 32.027344 56.675781 C 32.289062 56.351562 32.765625 56.296875 33.097656 56.550781 C 33.425781 56.808594 33.480469 57.277344 33.21875 57.605469 L 31.152344 60.171875 C 31.003906 60.355469 30.78125 60.453125 30.558594 60.453125 " fill-opacity="1" fill-rule="nonzero"/><g clip-path="url(#138c97d09a)"><path fill="#ffffff" d="M 21.652344 28.285156 C 21.488281 28.285156 21.433594 28.335938 21.363281 28.480469 C 21.082031 29.039062 20.785156 29.625 20.453125 30.273438 C 19.871094 31.40625 19.285156 32.539062 18.699219 33.667969 C 18.527344 34.003906 18.351562 34.339844 18.175781 34.675781 C 17.953125 35.097656 17.730469 35.523438 17.511719 35.949219 C 17.378906 36.207031 17.25 36.464844 17.121094 36.726562 C 16.996094 36.980469 16.871094 37.230469 16.742188 37.484375 C 16.371094 38.210938 15.988281 38.945312 15.617188 39.65625 L 15.445312 39.988281 C 15.285156 40.292969 15.128906 40.597656 14.96875 40.90625 C 14.742188 41.339844 14.511719 41.773438 14.289062 42.207031 C 14.148438 42.484375 14.007812 42.757812 13.867188 43.035156 C 13.65625 43.449219 13.441406 43.875 13.21875 44.292969 C 13.144531 44.4375 13.183594 44.648438 13.296875 44.71875 C 13.5625 44.882812 13.851562 45.027344 14.15625 45.179688 L 14.636719 45.421875 C 15.3125 45.761719 16.011719 46.113281 16.699219 46.433594 C 16.789062 46.476562 16.921875 46.5 17.039062 46.496094 C 17.109375 46.492188 17.199219 46.488281 17.34375 46.207031 C 17.773438 45.34375 18.21875 44.472656 18.648438 43.628906 L 18.964844 43.015625 C 19.460938 42.046875 19.957031 41.078125 20.457031 40.113281 C 20.785156 39.480469 21.109375 38.851562 21.4375 38.222656 C 21.859375 37.414062 22.277344 36.605469 22.695312 35.792969 C 22.96875 35.265625 23.238281 34.734375 23.507812 34.203125 C 23.726562 33.773438 23.945312 33.347656 24.167969 32.917969 C 24.558594 32.15625 24.972656 31.347656 25.390625 30.558594 C 25.496094 30.359375 25.496094 30.105469 25.261719 29.980469 C 25.070312 29.878906 24.875 29.78125 24.671875 29.679688 C 24.570312 29.632812 24.46875 29.582031 24.371094 29.53125 C 24.175781 29.433594 23.980469 29.335938 23.785156 29.238281 C 23.339844 29.011719 22.878906 28.777344 22.421875 28.558594 C 22.34375 28.523438 22.265625 28.480469 22.191406 28.441406 C 22.070312 28.375 21.886719 28.28125 21.828125 28.285156 L 21.769531 28.289062 L 21.714844 28.285156 C 21.691406 28.285156 21.671875 28.285156 21.652344 28.285156 Z M 17.011719 47.992188 C 16.671875 47.992188 16.335938 47.921875 16.046875 47.785156 C 15.335938 47.453125 14.628906 47.097656 13.945312 46.753906 L 13.464844 46.511719 C 13.144531 46.351562 12.8125 46.1875 12.488281 45.984375 C 11.707031 45.503906 11.429688 44.433594 11.871094 43.601562 C 12.085938 43.195312 12.296875 42.773438 12.503906 42.367188 C 12.644531 42.089844 12.789062 41.808594 12.933594 41.53125 C 13.15625 41.09375 13.386719 40.65625 13.613281 40.21875 C 13.773438 39.914062 13.933594 39.613281 14.089844 39.304688 L 14.261719 38.972656 C 14.632812 38.265625 15.011719 37.53125 15.382812 36.808594 C 15.507812 36.566406 15.628906 36.316406 15.753906 36.070312 C 15.882812 35.8125 16.015625 35.539062 16.152344 35.273438 C 16.375 34.84375 16.597656 34.417969 16.820312 33.988281 C 16.996094 33.65625 17.171875 33.324219 17.34375 32.988281 C 17.929688 31.859375 18.511719 30.730469 19.09375 29.597656 C 19.425781 28.953125 19.71875 28.371094 19.996094 27.820312 C 20.34375 27.125 20.960938 26.761719 21.75 26.789062 C 22.238281 26.765625 22.628906 26.96875 22.914062 27.125 C 22.972656 27.15625 23.03125 27.1875 23.089844 27.214844 C 23.558594 27.441406 24.027344 27.679688 24.484375 27.90625 C 24.675781 28.003906 24.867188 28.101562 25.0625 28.199219 C 25.15625 28.246094 25.253906 28.292969 25.351562 28.34375 C 25.558594 28.445312 25.773438 28.550781 25.988281 28.664062 C 26.929688 29.164062 27.253906 30.273438 26.742188 31.246094 C 26.328125 32.03125 25.929688 32.804688 25.523438 33.59375 C 25.304688 34.019531 25.089844 34.449219 24.871094 34.875 C 24.597656 35.40625 24.328125 35.941406 24.054688 36.472656 C 23.636719 37.28125 23.214844 38.09375 22.792969 38.902344 C 22.46875 39.53125 22.140625 40.160156 21.816406 40.792969 C 21.316406 41.757812 20.820312 42.722656 20.324219 43.6875 L 20.007812 44.304688 C 19.578125 45.140625 19.136719 46.007812 18.710938 46.863281 C 18.261719 47.761719 17.585938 47.972656 17.097656 47.992188 C 17.066406 47.992188 17.039062 47.992188 17.011719 47.992188 " fill-opacity="1" fill-rule="nonzero"/></g><g clip-path="url(#f680589332)"><path fill="#ffffff" d="M 51.097656 28.027344 C 50.621094 28.238281 50.140625 28.464844 49.671875 28.683594 L 49.265625 28.875 C 49.085938 28.957031 48.90625 29.042969 48.726562 29.128906 C 48.378906 29.289062 48.023438 29.460938 47.664062 29.621094 C 47.519531 29.6875 47.414062 29.933594 47.445312 30.027344 C 47.507812 30.207031 47.601562 30.394531 47.699219 30.59375 L 47.722656 30.640625 C 47.921875 31.050781 48.125 31.457031 48.328125 31.867188 C 48.609375 32.433594 48.894531 33.003906 49.171875 33.574219 C 49.335938 33.914062 49.5 34.265625 49.65625 34.601562 C 49.804688 34.910156 49.949219 35.21875 50.097656 35.527344 C 50.296875 35.941406 50.5 36.347656 50.703125 36.757812 C 50.890625 37.140625 51.082031 37.523438 51.265625 37.90625 C 51.507812 38.398438 51.742188 38.890625 51.976562 39.382812 C 52.175781 39.796875 52.375 40.210938 52.574219 40.621094 C 53.003906 41.507812 53.433594 42.390625 53.863281 43.277344 L 54.691406 44.980469 C 54.894531 45.394531 55.097656 45.8125 55.296875 46.226562 C 55.332031 46.289062 55.5 46.363281 55.574219 46.347656 C 55.945312 46.21875 56.28125 46.085938 56.585938 45.945312 C 57.375 45.585938 58.019531 45.28125 58.621094 44.980469 C 58.867188 44.859375 59.144531 44.710938 59.355469 44.539062 C 59.414062 44.488281 59.414062 44.347656 59.382812 44.28125 C 58.976562 43.429688 58.554688 42.566406 58.148438 41.726562 L 57.816406 41.039062 C 57.257812 39.890625 56.703125 38.746094 56.144531 37.597656 C 55.914062 37.125 55.683594 36.652344 55.453125 36.179688 C 55.199219 35.65625 54.941406 35.136719 54.6875 34.613281 C 54.304688 33.820312 53.921875 33.027344 53.539062 32.234375 L 52.898438 30.914062 C 52.480469 30.042969 52.058594 29.175781 51.644531 28.304688 C 51.511719 28.03125 51.417969 28 51.3125 28 C 51.273438 28.003906 51.234375 28.007812 51.199219 28.015625 C 51.164062 28.019531 51.121094 28.023438 51.097656 28.027344 Z M 55.558594 47.847656 C 54.898438 47.847656 54.210938 47.464844 53.921875 46.871094 C 53.722656 46.457031 53.519531 46.042969 53.316406 45.625 L 52.488281 43.921875 C 52.058594 43.039062 51.628906 42.152344 51.199219 41.265625 C 51 40.851562 50.800781 40.4375 50.601562 40.019531 C 50.367188 39.53125 50.132812 39.039062 49.894531 38.550781 C 49.707031 38.171875 49.519531 37.792969 49.332031 37.414062 C 49.128906 37 48.921875 36.585938 48.722656 36.171875 C 48.570312 35.859375 48.421875 35.542969 48.273438 35.226562 C 48.121094 34.894531 47.960938 34.550781 47.796875 34.21875 C 47.519531 33.652344 47.242188 33.085938 46.960938 32.523438 C 46.757812 32.113281 46.554688 31.703125 46.351562 31.292969 L 46.328125 31.246094 C 46.214844 31.015625 46.097656 30.777344 46.003906 30.511719 C 45.714844 29.667969 46.183594 28.640625 47.03125 28.257812 C 47.378906 28.105469 47.726562 27.9375 48.066406 27.777344 C 48.25 27.691406 48.429688 27.605469 48.613281 27.523438 L 49.015625 27.332031 C 49.496094 27.109375 49.996094 26.875 50.492188 26.65625 C 50.6875 26.566406 50.871094 26.546875 51.007812 26.527344 C 51.039062 26.523438 51.074219 26.519531 51.105469 26.515625 L 51.164062 26.503906 L 51.222656 26.503906 C 51.78125 26.488281 52.546875 26.675781 53.019531 27.667969 C 53.4375 28.535156 53.855469 29.402344 54.273438 30.269531 L 54.914062 31.59375 C 55.296875 32.386719 55.679688 33.175781 56.0625 33.96875 C 56.316406 34.488281 56.570312 35.011719 56.824219 35.53125 C 57.058594 36.003906 57.289062 36.480469 57.519531 36.953125 C 58.078125 38.101562 58.632812 39.246094 59.1875 40.394531 L 59.523438 41.082031 C 59.929688 41.921875 60.351562 42.789062 60.761719 43.644531 C 61.046875 44.246094 60.992188 45.140625 60.335938 45.683594 C 60.003906 45.957031 59.632812 46.15625 59.308594 46.316406 C 58.691406 46.625 58.027344 46.9375 57.226562 47.304688 C 56.878906 47.464844 56.503906 47.613281 56.078125 47.761719 C 55.914062 47.820312 55.738281 47.847656 55.558594 47.847656 " fill-opacity="1" fill-rule="nonzero"/></g><g clip-path="url(#47f9d79d94)"><path fill="#ffffff" d="M 46.570312 9.792969 C 46.449219 9.738281 43.53125 8.480469 40.855469 9.804688 C 38.621094 10.914062 35.769531 13.984375 36.6875 17.082031 C 36.394531 17.707031 36.171875 18.363281 36.019531 19.042969 C 35.765625 18.105469 34.523438 14.203125 31.253906 12.75 C 27.53125 11.09375 25.027344 13.207031 24.925781 13.296875 C 24.757812 13.441406 24.6875 13.671875 24.742188 13.886719 C 24.761719 13.957031 26.550781 20.644531 33.691406 20.644531 C 34.121094 20.644531 34.566406 20.617188 35.035156 20.566406 C 35.050781 20.566406 35.0625 20.558594 35.078125 20.558594 C 35.351562 21.027344 35.554688 21.527344 35.660156 22.042969 C 35.335938 26.144531 35.527344 29.519531 35.527344 29.5625 C 35.546875 29.875 35.804688 30.113281 36.113281 30.113281 C 36.125 30.113281 36.136719 30.113281 36.148438 30.113281 C 36.476562 30.09375 36.722656 29.816406 36.703125 29.488281 C 36.703125 29.445312 36.449219 24.976562 37.03125 20.121094 C 37.113281 19.441406 37.273438 18.792969 37.515625 18.167969 C 37.53125 18.167969 37.546875 18.175781 37.566406 18.175781 C 37.582031 18.175781 37.597656 18.175781 37.613281 18.175781 C 37.707031 18.167969 47.171875 17.371094 46.929688 10.304688 C 46.921875 10.082031 46.785156 9.875 46.582031 9.785156 Z M 26 13.976562 C 26.671875 13.5625 28.414062 12.773438 30.78125 13.824219 C 32.617188 14.640625 33.726562 16.460938 34.332031 17.824219 C 32.4375 16.058594 30.167969 15.023438 30.015625 14.957031 C 29.722656 14.824219 29.371094 14.957031 29.238281 15.253906 C 29.105469 15.554688 29.238281 15.898438 29.535156 16.03125 C 29.578125 16.050781 32.453125 17.363281 34.273438 19.453125 C 28.46875 19.769531 26.472656 15.335938 26 13.976562 Z M 38.097656 16.941406 C 39.03125 15.34375 40.542969 13.921875 42.667969 12.65625 C 42.945312 12.488281 43.035156 12.125 42.871094 11.847656 C 42.707031 11.566406 42.34375 11.476562 42.066406 11.640625 C 40.191406 12.761719 38.75 14 37.722656 15.375 C 38.007812 13.339844 40.050781 11.515625 41.378906 10.859375 C 42.105469 10.5 42.863281 10.378906 43.558594 10.378906 C 44.492188 10.378906 45.308594 10.59375 45.746094 10.738281 C 45.613281 15.5 39.960938 16.679688 38.09375 16.9375 Z M 38.097656 16.941406 " fill-opacity="1" fill-rule="nonzero"/></g><g clip-path="url(#4ee994fc6e)"><path fill="#ffffff" d="M 35.847656 69.972656 C 16.996094 69.972656 1.722656 54.59375 1.722656 35.847656 C 1.722656 17.101562 16.996094 1.722656 35.847656 1.722656 C 54.699219 1.722656 69.972656 16.996094 69.972656 35.847656 C 69.972656 54.699219 54.59375 69.972656 35.847656 69.972656 Z M 35.847656 3.828125 C 18.152344 3.828125 3.828125 18.152344 3.828125 35.847656 C 3.828125 53.542969 18.152344 67.867188 35.847656 67.867188 C 53.542969 67.867188 67.867188 53.542969 67.867188 35.847656 C 67.867188 18.152344 53.4375 3.828125 35.847656 3.828125 Z M 35.847656 3.828125 " fill-opacity="1" fill-rule="nonzero"/></g></svg>